<?xml version="1.0" encoding="utf-8"?>
<!-- Generator: Adobe Illustrator 16.0.0, SVG Export Plug-In . SVG Version: 6.00 Build 0)  -->
<!DOCTYPE svg PUBLIC "-//W3C//DTD SVG 1.1//EN" "http://www.w3.org/Graphics/SVG/1.1/DTD/svg11.dtd">
<svg version="1.1" id="Layer_1" xmlns="http://www.w3.org/2000/svg" xmlns:xlink="http://www.w3.org/1999/xlink" x="0px" y="0px"
	 width="91px" height="91px" viewBox="0 0 91 91" enable-background="new 0 0 91 91" xml:space="preserve">
<g>
	<path fill="#588B8B" d="M80.062,19.903c1.646-2.074,0.139-4.716-1.974-5.376c0.009-0.002,0.017-0.004,0.022-0.004
		c-0.021-0.004-0.041-0.004-0.062-0.009c-0.781-0.235-1.644-0.191-2.454,0.249c-2.168,0.839-22.98,22.161-26.263,25.579
		c-1.792,1.865-5.254,4.62-3.589,7.533C46.048,48.41,58.6,60.371,62.005,63.684c4.669,4.541,9.112,9.726,14.438,13.5
		c1.306,0.926,2.971-0.875,2.16-2.162c-3.948-6.267-24.998-28.543-25.34-28.935C54.312,45.047,79.202,21.57,80.062,19.903z"/>
	<path fill="#588B8B" d="M51.477,0.717c-3.154,1.191-32.3,31.116-37.039,35.986c-2.691,2.769-7.148,6.22-6.431,10.486
		c0.189,1.117,1.031,2.097,2.023,2.728c0.367,0.375,34.475,34.776,42.558,40.507c1.877,1.332,4.268-1.257,3.104-3.104
		c-5.551-8.811-35.754-40.814-36.414-41.531c1.397-1.384,37.272-35.233,38.531-37.656c2.338-2.993,0.142-6.791-2.906-7.709
		l0.123-0.033C54.872,0.361,52.502,0.192,51.477,0.717z"/>
</g>
</svg>
